<svg id="Layer_1" data-name="Layer 1" xmlns="http://www.w3.org/2000/svg" width="110.14" height="118.5" viewBox="0 0 110.14 118.5"><title>ie-edge</title><path d="M56.1.5H65c.1.28.35.2.55.22A62.43,62.43,0,0,1,73.23,2c23,5.29,39.24,23.87,41.25,48.93.5,6.21.1,12.43.25,18.65,0,1.07-.28,1.28-1.3,1.28q-29.51,0-59,0c-4.81,0-9.62,0-14.43,0-.89,0-1.09.26-1,1.09A22,22,0,0,0,40.84,80c2.86,6.06,7.81,9.73,13.84,12.1,9.52,3.75,19.23,3.83,29.06,1.38,6.6-1.64,12.7-4.51,18.71-7.6.33-.17.62-.51,1.12-.38q0,12.15,0,24.29c0,.56-.32.74-.72.93a82.81,82.81,0,0,1-27.66,7.88,9.45,9.45,0,0,0-3,.39h-10a3.64,3.64,0,0,0-1.95-.39C49,117.19,39.07,112.8,31,104.76,20.56,94.36,16.43,81.61,18.12,67.08c1.84-15.87,10-27.56,24-35.2A24.51,24.51,0,0,1,46.4,30a3,3,0,0,1-.26.5c-4.44,4.89-6.48,10.84-7.54,17.22-.12.73.05.93.79.93q20.18,0,40.36,0c.82,0,.93-.31.92-1A47.74,47.74,0,0,0,80,39.93c-1.55-8.92-6.68-14.25-15.52-16a44.43,44.43,0,0,0-19.26.57,65.32,65.32,0,0,0-40,27.73c-.13.19-.18.48-.51.52a2.51,2.51,0,0,1,0-1.26A63.52,63.52,0,0,1,9.47,34.31C17.91,15.73,31.84,4.18,52.31,1.07A15.92,15.92,0,0,0,56.1.5Z" transform="translate(-4.6 -0.5)" style="fill:#0178d6"/></svg>