<?xml version="1.0" encoding="utf-8"?>
<!-- Generator: Adobe Illustrator 16.0.0, SVG Export Plug-In . SVG Version: 6.00 Build 0)  -->
<!DOCTYPE svg PUBLIC "-//W3C//DTD SVG 1.1//EN" "http://www.w3.org/Graphics/SVG/1.1/DTD/svg11.dtd">
<svg version="1.1" id="Layer_1" xmlns="http://www.w3.org/2000/svg" xmlns:xlink="http://www.w3.org/1999/xlink" x="0px" y="0px"
	 width="461.947px" height="102.05px" viewBox="0 0 461.947 102.05" enable-background="new 0 0 461.947 102.05"
	 xml:space="preserve">
<path fill="#FFFFFF" d="M102.047,85.041c0,9.396-7.614,17.008-17.008,17.008H17.008C7.615,102.048,0,94.436,0,85.041V17.009
	C0,7.616,7.615,0.001,17.008,0.001h85.04L102.047,85.041L102.047,85.041z"/>
<g enable-background="new    ">
	<path fill="#0B2743" d="M28.654,78.112h-7.941V22.654h7.941V78.112z M38.182,48.008l23.404,30.104h-9.779l-22.736-29.62
		l21.9-25.837h9.027L38.182,48.008z"/>
	<path fill="#0B2743" d="M79.143,70.384c0,11.591-5.768,15.938-15.045,18.755l-2.09-5.554c7.606-2.898,9.195-6.117,9.195-13.522
		V22.654h7.94V70.384z"/>
</g>
<rect x="117.527" y="0.001" fill="#D03439" width="10.205" height="102.047"/>
<g enable-background="new    ">
	<path fill="#38A6D2" d="M172.415,39.557l-3.26,4.668c-3.929-2.415-7.356-3.622-11.452-3.622c-5.015,0-8.108,2.173-8.108,5.554
		c0,3.461,2.34,5.071,9.445,6.842c9.278,2.253,14.628,5.795,14.628,13.199c0,8.854-8.442,12.879-17.386,12.879
		c-7.439,0-12.789-2.334-16.634-5.554l4.096-4.507c3.511,2.575,7.606,4.104,12.371,4.104c5.768,0,9.445-2.415,9.445-6.439
		c0-4.186-2.173-5.796-10.699-7.968c-9.529-2.416-13.291-6.359-13.291-12.315c0-6.761,6.771-11.671,15.882-11.671
		C163.638,34.728,168.236,36.499,172.415,39.557z"/>
	<path fill="#38A6D2" d="M220.648,56.863c0,13.119-7.188,22.215-19.643,22.215c-12.538,0-19.643-8.693-19.643-22.135
		c0-13.12,7.188-22.215,19.727-22.215S220.648,43.42,220.648,56.863z M189.637,56.943c0,11.027,4.012,16.179,11.368,16.179
		c7.355,0,11.368-5.151,11.368-16.259c0-11.027-4.012-16.179-11.284-16.179C193.733,40.684,189.637,45.835,189.637,56.943z"/>
	<path fill="#38A6D2" d="M241.8,29.818v5.875h10.699l-0.836,5.715H241.8v36.704h-7.689V41.408h-7.857v-5.715h7.857v-5.795
		c0-7.083,4.848-12.154,13.791-12.154c4.18,0,7.021,0.725,10.533,2.173l-2.424,5.393c-2.843-1.207-5.434-1.609-7.691-1.609
		C243.471,23.701,241.8,25.713,241.8,29.818z"/>
	<path fill="#38A6D2" d="M283.596,76.18c-2.926,1.932-6.103,2.897-9.863,2.897c-7.439,0-11.87-4.186-11.87-12.073V41.408h-7.69
		v-5.715h7.69v-9.578l7.69-0.885v10.463h10.448l-0.836,5.715h-9.612v25.274c0,4.267,1.42,6.278,5.266,6.278
		c1.922,0,3.678-0.563,5.852-1.852L283.596,76.18z"/>
	<path fill="#38A6D2" d="M331.827,78.112H321.38l-7.69-35.738l-7.94,35.738h-10.198l-10.281-42.418h7.69l7.94,37.267l8.692-37.267
		h8.61l8.274,37.267l8.025-37.267h7.355L331.827,78.112z"/>
	<path fill="#38A6D2" d="M384.827,73.926l-1.756,5.151c-4.43-0.482-7.271-2.174-8.609-6.359c-3.093,4.428-7.773,6.359-13.123,6.359
		c-8.777,0-14.043-5.232-14.043-12.798c0-9.095,7.105-14.005,19.393-14.005h6.771v-3.14c0-6.117-3.093-8.371-9.194-8.371
		c-3.26,0-7.355,0.805-11.869,2.254l-1.923-5.393c5.433-1.932,10.281-2.898,15.213-2.898c10.615,0,15.464,5.232,15.464,14.086
		v19.398C381.149,71.914,382.57,73.122,384.827,73.926z M373.459,66.923v-9.738h-5.768c-8.108,0-12.204,2.896-12.204,8.692
		c0,4.99,2.592,7.646,7.607,7.646C367.608,73.524,370.951,71.351,373.459,66.923z"/>
	<path fill="#38A6D2" d="M420.438,35.21l-1.421,7.244c-1.337-0.322-2.257-0.483-3.845-0.483c-5.518,0-8.693,3.783-10.532,11.913
		v24.228h-7.69V35.693h6.604l0.752,8.613c2.342-6.359,6.438-9.579,11.787-9.579C417.512,34.728,419.101,34.889,420.438,35.21z"/>
	<path fill="#38A6D2" d="M461.482,59.438h-28.086c0.752,9.819,5.517,13.603,11.869,13.603c4.347,0,7.606-1.127,11.452-3.702
		l3.343,4.427c-4.346,3.301-9.277,5.313-15.38,5.313c-12.287,0-19.476-8.291-19.476-21.732c0-13.2,6.938-22.618,18.306-22.618
		c11.869,0,18.139,7.969,18.139,20.928C461.649,57.104,461.565,58.472,461.482,59.438z M454.043,53.482
		c0-8.291-3.428-12.878-10.365-12.878c-5.851,0-9.696,3.944-10.281,13.361h20.646V53.482z"/>
</g>
</svg>
